<?xml version="1.0" encoding="utf-8"?>
<!-- Generator: Adobe Illustrator 30.1.0, SVG Export Plug-In . SVG Version: 9.03 Build 0)  -->
<!DOCTYPE svg PUBLIC "-//W3C//DTD SVG 1.1//EN" "http://www.w3.org/Graphics/SVG/1.1/DTD/svg11.dtd" [
	<!ENTITY st0 "fill:#467EBE;">
	<!ENTITY st1 "fill:#4D4D4F;">
	<!ENTITY st2 "fill:#FFFFFF;">
]>
<svg version="1.1" id="Layer_1" xmlns="http://www.w3.org/2000/svg" xmlns:xlink="http://www.w3.org/1999/xlink" x="0px" y="0px"
	 width="108px" height="108px" viewBox="0 0 108 108" style="enable-background:new 0 0 108 108;" xml:space="preserve">
<g id="SgcVgh_00000002343673165961180530000012570184932997380511_">
	<g>
		<path style="&st2;" d="M28,83.3l3.2,1.2c0.7,0.3,1.3,0.6,1.9,1c3,2,6.1,3.7,9.7,4.9c9,3,18.8,2.6,27.6-1.1
			c7.8-3.2,14.1-8.9,18.5-16.1c6.2-10.2,7.2-22.8,2.7-33.9l6.7-8.6c4.5,7.7,6.6,16.6,6.1,25.5c-0.8,15-8.5,28.2-20.6,36.9
			c-14.5,10.4-34.3,11.9-50.3,3.9c-4.8-2.4-9-5.3-12.9-9.3L28,83.3z"/>
		<path style="&st2;" d="M16.3,52.5c-0.2,4.2,0.5,8.1,1.4,12l-7.5,8.6c-7.8-18-4-38.2,9.4-52.2c9-9.4,21.3-14.9,34.4-15.1
			c11.8-0.3,23.2,3.5,32.4,11l-8.7,5.8c-15.8-11.2-37.6-9-51,5.1C20.5,34.5,16.7,43.1,16.3,52.5z"/>
		<path style="&st2;" d="M58.8,56.1c4.8-4.6,9.3-9.1,13.8-13.9c1.4-1.5,1.8-3.8,0.8-5.5c-0.8-1.5-2.4-2.1-4.1-2.1
			c-1.7,0.2-3.3,0.8-4.7,1.8l-8,7.3c-3.4-1.4-6.7-1.6-10.5-0.9l11.5-10.8c4.1-4.1,10-6,15.6-4.8c3,0.6,5.5,2.2,7.2,4.7l3.7-4.8
			l22.1-15.5c-0.8,1.5-1.7,2.7-2.6,4L88.9,34.8c-3.6,4.8-7.4,9.5-11.5,13.8l-11,11.5c-3.5,3.7-8.4,5.7-13.5,4.9
			c-3.4-0.5-6.7-2.7-7.4-6.4c0.6-0.6,4.5-4.2,5.2-3.3c0.8,1.3,2.1,2.4,3.8,2.3C56.1,57.7,57.6,57.3,58.8,56.1z"/>
		<path style="&st2;" d="M48.1,66.6c3.3,1.4,6.6,1.7,10.4,1.1c-1.1,1.1-2.1,2.1-3.3,3.2L46,79.3c-5.3,4.8-17.6,4.4-21.4-3.3l-2,2.4
			l-9.2,6.1L1.8,92c8.9-12.2,18.1-23.8,28.7-34.2l8.3-8.2c3.1-3.1,7.4-4.7,11.8-4.5c3.7,0.2,7.8,2,8.6,6l-3.4,3.1
			c-0.4,0.3-1,0.6-1.5,0.7c-0.8-1.4-2-2.1-3.6-2.3c-2.3-0.2-4.3,0.8-5.9,2.4c-4.2,4.1-8.3,8-12.2,12.3c-1.7,1.9-1.4,4.9,0.5,6.4
			c2.8,1.8,6.1,0.9,8.4-1.2L48.1,66.6z"/>
	</g>
</g>
</svg>
