<?xml version="1.0" encoding="utf-8"?>
<!-- Generator: Adobe Illustrator 30.1.0, SVG Export Plug-In . SVG Version: 9.03 Build 0)  -->
<!DOCTYPE svg PUBLIC "-//W3C//DTD SVG 1.1//EN" "http://www.w3.org/Graphics/SVG/1.1/DTD/svg11.dtd" [
	<!ENTITY st0 "fill:#467EBE;">
	<!ENTITY st1 "fill:#4D4D4F;">
]>
<svg version="1.1" id="Layer_1" xmlns="http://www.w3.org/2000/svg" xmlns:xlink="http://www.w3.org/1999/xlink" x="0px" y="0px"
	 width="396px" height="106.7px" viewBox="0 0 396 106.7" style="enable-background:new 0 0 396 106.7;" xml:space="preserve">
<g>
	<g id="SgcVgh_00000025418245838753626150000017622105941351279038_">
		<g>
			<path d="M32.3,79.2l2.8,1.1c0.6,0.2,1.2,0.5,1.7,0.9c2.7,1.8,5.4,3.3,8.5,4.3c8,2.6,16.6,2.3,24.3-0.9
				c6.8-2.9,12.5-7.9,16.3-14.2c5.5-9,6.3-20.1,2.3-29.9l5.9-7.6c3.9,6.8,5.8,14.6,5.4,22.5c-0.7,13.3-7.5,24.9-18.2,32.5
				c-12.8,9.1-30.3,10.5-44.3,3.5c-4.2-2.1-7.9-4.7-11.4-8.2L32.3,79.2z"/>
			<path d="M21.9,52.1c-0.2,3.7,0.4,7.1,1.2,10.6l-6.6,7.6c-6.9-15.9-3.6-33.7,8.3-46.1c7.9-8.3,18.8-13.1,30.3-13.3
				c10.4-0.3,20.4,3.1,28.6,9.7l-7.7,5.1c-13.9-9.8-33.1-8-45,4.5C25.6,36.1,22.3,43.7,21.9,52.1z"/>
			<path style="&st0;" d="M59.5,55.2c4.2-4,8.2-8,12.2-12.3c1.2-1.3,1.6-3.3,0.7-4.9c-0.7-1.3-2.1-1.8-3.6-1.9
				c-1.5,0.2-2.9,0.7-4.2,1.6l-7.1,6.5c-3-1.3-5.9-1.4-9.3-0.8l10.2-9.6c3.6-3.6,8.8-5.3,13.8-4.2c2.6,0.5,4.9,1.9,6.3,4.1l3.2-4.3
				l19.5-13.7c-0.7,1.3-1.5,2.3-2.3,3.5L86,36.5c-3.2,4.3-6.5,8.4-10.2,12.2l-9.7,10.1c-3.1,3.2-7.4,5-11.9,4.3
				c-3-0.4-5.9-2.4-6.5-5.6c0.5-0.5,4-3.7,4.6-2.9c0.7,1.2,1.9,2.1,3.3,2.1C57,56.6,58.4,56.2,59.5,55.2z"/>
			<path style="&st0;" d="M50,64.5c2.9,1.2,5.9,1.5,9.2,1c-0.9,1-1.9,1.9-2.9,2.8l-8.2,7.4c-4.7,4.3-15.5,3.9-18.8-2.9l-1.8,2.1
				l-8.1,5.4L9.1,86.9c7.9-10.7,16-21,25.3-30.2l7.3-7.2c2.8-2.7,6.5-4.2,10.4-4c3.3,0.2,6.8,1.7,7.6,5.3l-3,2.7
				c-0.3,0.3-0.8,0.5-1.3,0.6c-0.7-1.2-1.8-1.9-3.2-2c-2.1-0.2-3.8,0.7-5.2,2.1c-3.7,3.6-7.3,7-10.8,10.9c-1.5,1.7-1.2,4.3,0.5,5.7
				c2.5,1.6,5.4,0.8,7.4-1.1L50,64.5z"/>
		</g>
	</g>
	<g>
		<path style="&st1;" d="M109,27.9h12c0.5,0,0.9,0.2,1.2,0.7c0.2,0.7,0.3,1.2,0.3,1.6c-0.6,2.6-1.4,6.2-2.5,10.8s-2.1,9.2-3.2,13.7
			s-1.9,8.2-2.5,10.8c-0.2,0.8-0.3,1.6-0.3,2.4c0,0.6,0.1,1.3,0.3,1.8c0.3,0.8,1,1.4,2.1,1.8s2.5,0.6,4.1,0.6c1.4,0,2.8-0.2,4-0.5
			s2.1-0.8,2.7-1.4c0.5-0.5,0.9-0.9,1.1-1.2s0.4-0.7,0.7-1.5c0.6-2.7,1.5-6.5,2.5-11.3s2.2-9.7,3.2-14.5c1.1-4.8,1.9-8.6,2.5-11.3
			c0-0.4-0.2-0.9-0.5-1.5c-0.1-0.2-0.3-0.4-0.6-0.6c-0.3-0.2-0.6-0.3-0.9-0.3h11.8c0.2,0,0.5,0.1,0.9,0.3c0.3,0.2,0.6,0.4,0.6,0.6
			c0.3,0.7,0.5,1.2,0.5,1.7c-0.7,2.9-1.6,7-2.8,12.1s-2.4,10.3-3.6,15.4c-1.2,5.1-2.2,9.2-2.8,12.1c-0.5,1.7-0.9,3-1.3,3.8
			c-0.3,0.8-0.7,1.4-1.1,1.7c-0.4,0.4-1,0.8-1.8,1.4c-1,0.8-2.3,1.5-3.9,1.9c-1.6,0.5-3.4,0.8-5.4,1c-2,0.2-4.1,0.3-6.4,0.3
			c-0.7,0-1.7,0-3,0c-1.3,0-2.3,0-3,0c-3,0-5.4-0.3-7.4-1c-1.9-0.7-3.4-2-4.6-4c-0.5-1.2-0.8-2.5-0.8-3.9c0-1.2,0.3-2.9,0.8-5.4
			c0.6-2.6,1.5-6.2,2.6-10.9s2.2-9.2,3.3-13.9s2-8.2,2.6-10.9c0.1-0.3,0.2-0.6,0.2-0.8c0-0.4-0.1-0.7-0.4-0.9
			C110,28.2,109.5,27.9,109,27.9z"/>
		<path style="&st1;" d="M151.4,27.9h27.1c1.7,0,3.1,0.2,4.3,0.5c1.2,0.3,2.3,0.9,3.3,1.9c1.5,1.5,2.3,3.9,2.3,7.3
			c0,1.8-0.2,3.8-0.6,5.9c-0.4,2.1-0.9,4-1.5,5.7c-0.6,1.7-1.2,3-1.8,3.9c-1,1.5-2.3,2.6-3.8,3.2c-1.6,0.7-3.5,1.1-5.8,1.3
			c0.3,0.9,0.7,2.1,1.2,3.7c0.5,1.6,1,3.1,1.5,4.7c0.5,1.6,0.9,2.8,1.2,3.7c0.3,0.6,0.6,1,1,1.2c0,0,0.2,0.1,0.5,0.4
			c0.3,0.2,0.7,0.4,1,0.5h2.8c-0.3,1.1-0.5,2.2-0.8,3.4c-0.3,1.1-0.5,2.2-0.8,3.4c0,0.6-0.3,1-0.8,1.4c-0.6,0.2-1.1,0.3-1.6,0.3H172
			c-0.8,0-1.5-0.2-2-0.5c-0.6-0.4-1-0.9-1.2-1.5c-0.4-1.5-0.9-3.6-1.6-6.2c-0.7-2.7-1.4-5.3-2.1-8c-0.7-2.7-1.2-4.7-1.6-6.2h-4.6
			c0.3-1.4,0.7-2.8,1-4.2c0.3-1.4,0.7-2.8,1-4.2h8.5c1.4,0,2.6-0.2,3.7-0.7c1.3-0.6,2.2-1.6,2.9-3.2s1-3.2,1-4.9
			c0-1.8-0.4-3.1-1.2-3.9c-0.6-0.6-1.8-0.8-3.3-0.8H164c-0.7,3.1-1.7,7.3-2.9,12.8s-2.5,10.9-3.8,16.3s-2.2,9.7-2.9,12.8
			c0,0.3,0.2,0.9,0.5,1.7c0.1,0.1,0.2,0.3,0.4,0.3c0.1,0.1,0.4,0.2,0.7,0.3s0.5,0.2,0.7,0.2h-12.2c-0.5,0-1.1-0.2-1.6-0.5
			c-0.4-0.2-0.5-0.8-0.5-1.8c0.8-3.4,1.9-8.1,3.4-14.2s2.9-12.1,4.3-18.1c1.4-6,2.5-10.8,3.4-14.2c0-0.3,0.1-0.6,0.1-0.9
			c0.1-0.3,0.1-0.6,0.1-0.7c0-0.4-0.1-0.7-0.4-1.1C152.8,28.4,152.3,28.1,151.4,27.9z"/>
		<path style="&st1;" d="M193.9,27.9h12.2c1.1,0,1.7,0.2,2,0.7c0.2,0.3,0.3,0.6,0.3,1c0,0.2,0,0.5-0.1,0.9c-0.7,3-1.6,7.1-2.9,12.3
			s-2.4,10.5-3.6,15.7c-1.2,5.2-2.2,9.4-2.9,12.3h13.9h2.4c0.6,0,1-0.1,1.2-0.3c0.3-0.1,0.5-0.4,0.6-0.6s0.2-0.5,0.2-0.7h0.7
			c-0.4,1.4-0.7,2.9-1.1,4.3c-0.4,1.4-0.7,2.9-1.1,4.3c-0.1,0.3-0.2,0.6-0.2,0.8c-0.1,0.2-0.1,0.4-0.3,0.5c-0.1,0.2-0.3,0.3-0.5,0.5
			c-0.4,0.4-0.9,0.6-1.5,0.6c0,0-0.2,0-0.5,0c-0.3,0-0.7,0-1.2,0h-24.9c-0.9,0-1.5-0.4-1.6-1.2c-0.3-0.4-0.4-1.1-0.4-2.2
			c0.8-3.3,1.9-7.9,3.3-13.8c1.4-5.9,2.8-11.8,4.2-17.7c1.4-5.9,2.5-10.5,3.3-13.8c0.3-0.8,0.4-1.4,0.4-1.7c0-0.3-0.1-0.6-0.4-1
			C195.1,28.2,194.5,27.9,193.9,27.9z"/>
		<path style="&st1;" d="M259.1,31.2c-0.3,1.1-0.5,2.2-0.8,3.3c0,0.6-0.3,1-0.8,1.4c-0.3,0.2-0.9,0.3-2,0.3h-9.8c-1,0-2,0.1-3,0.1
			c-1,0-1.8,0.3-2.5,0.8c-0.7,0.5-1.2,1.4-1.5,2.6c-0.4,1.7-0.6,2.8-0.6,3.3c0,1.9,1.2,3.2,3.6,4.1c0.5,0.1,1.6,0.4,3.2,0.8
			c1.6,0.4,3,0.8,4.2,1.2s2.3,1,3.5,1.7c1.2,0.7,2.1,1.6,3,2.7c0.8,1.2,1.2,3.2,1.2,6c0,2-0.2,4.1-0.6,6.4c-0.4,2.3-1.1,4.4-1.9,6.3
			c-0.8,1.9-1.7,3.4-2.7,4.3c-1.5,1.2-2.9,2.1-4.4,2.7c-1.4,0.6-3.1,0.9-4.9,1h-22.1c-0.9,0-1.5-0.3-1.8-0.8
			c-0.4-0.7-0.7-1.3-0.7-1.8c0.4-1.7,0.9-3.3,1.3-4.9s0.9-3.3,1.3-4.9h0.8c-0.1,0.3-0.2,0.7-0.2,1.1c0,0.9,0.3,1.5,0.9,2
			c0.6,0.4,1.3,0.7,2.2,0.7c0.7,0,1.8,0,3.2,0c1.5,0,2.6,0,3.4,0c4.7,0,8-0.3,9.6-1c2.1-0.7,3.4-3,3.8-6.8c0-1.6-0.7-2.8-2-3.5
			c-1.3-0.7-3.6-1.6-6.7-2.6c-3.1-1-5.5-2.1-7.1-3.4c-1.6-1.3-2.4-3.2-2.4-5.7c0.2-2.5,0.3-4.6,0.5-6.1s0.6-3.1,1.3-4.8
			s1.6-3.4,2.9-5c1.3-1.4,2.6-2.5,3.9-3.3s3.3-1.2,6-1.2h19.3C259.6,29,259.4,30.1,259.1,31.2z"/>
		<path style="&st1;" d="M265.4,28.3c-0.1-0.1-0.3-0.2-0.6-0.2c-0.3-0.1-0.4-0.1-0.5-0.2h10.9c0.7,0,1.4,0.3,2.2,0.9
			c0.3,0.1,0.7,0.6,1,1.3c0.7,1.8,1.6,4.2,2.9,7.3c1.2,3.1,2.4,6.2,3.6,9.4c1.2,3.1,2.2,5.6,2.9,7.3c0.4-1.7,0.9-4.1,1.6-7.2
			s1.4-6.1,2.1-9.2c0.7-3.1,1.2-5.4,1.6-7.2c0-0.7-0.1-1.3-0.3-1.7c-0.1-0.2-0.2-0.3-0.4-0.4c-0.2-0.1-0.4-0.2-0.8-0.3
			c-0.3-0.1-0.6-0.2-0.9-0.3h10c1,0,1.7,0.3,2.2,0.9c0.4,0.5,0.5,1,0.5,1.5c-0.8,3.7-2,8.8-3.4,15.2c-1.5,6.5-2.9,13-4.4,19.5
			c-1.5,6.5-2.6,11.6-3.4,15.3h-4.8c-0.4,0-1.2-0.3-2.3-0.8c-0.6-0.4-1-0.8-1.4-1.3c-0.8-2.1-1.8-5.1-3.2-8.9
			c-1.4-3.8-2.7-7.5-4.1-11.3s-2.4-6.7-3.2-8.9c-0.5,2-1.1,4.9-2,8.5c-0.9,3.6-1.7,7.2-2.6,10.9c-0.9,3.6-1.5,6.5-2,8.5
			c0,0.8,0.2,1.5,0.5,2.2c0.1,0.2,0.4,0.5,1,0.8s0.8,0.4,0.8,0.4c-0.8,0-2,0-3.4,0.1c-1.5,0-2.9,0.1-4.4,0.1c-1.5,0-2.6,0-3.4,0.1
			c-0.3,0-0.7-0.1-1.1-0.4c-0.4-0.3-0.7-0.5-0.8-0.6c-0.3-0.8-0.4-1.3-0.4-1.6c0.8-3.5,1.9-8.2,3.3-14.3c1.4-6.1,2.8-12.2,4.2-18.3
			s2.5-10.9,3.3-14.3c0-1-0.1-1.6-0.2-1.9C265.6,28.6,265.5,28.4,265.4,28.3z"/>
		<path style="&st1;" d="M336.4,27.9c0.6,0,1,0.3,1.2,0.9c0.4,0.6,0.5,1,0.5,1.3c0.1,3.5,0.3,8.4,0.5,14.7s0.4,12.5,0.7,18.8
			s0.4,11.2,0.5,14.7c0,0.8,0.2,1.3,0.7,1.5c0,0,0.2,0.1,0.5,0.3c0.3,0.2,0.5,0.3,0.6,0.3H330c-0.5-0.1-0.9-0.4-1.2-0.7
			c-0.4-0.4-0.7-0.9-0.7-1.4V66.9h-17.9c0.8-1.4,1.6-2.8,2.5-4.2c0.8-1.4,1.6-2.8,2.5-4.2h12.6c-0.1-1.5-0.1-3.6-0.2-6.2
			c-0.1-2.7-0.2-5.3-0.2-8c-0.1-2.7-0.2-4.7-0.2-6.2c-0.9,1.6-2.9,5.1-6,10.4s-5.6,9.7-7.5,13c-1.9,3.3-3.5,6.1-4.9,8.5
			c-1.4,2.4-2.5,4.4-3.4,6c-0.2,0.6-0.3,1.1-0.3,1.5c0,0.5,0.2,1.1,0.5,1.7c0.2,0.3,0.7,0.7,1.6,1h-10.8c-0.4-0.1-0.7-0.1-1-0.1
			c-0.3,0-0.6-0.1-0.8-0.2c-0.2-0.1-0.4-0.3-0.5-0.6c-0.2-0.4-0.3-0.7-0.3-1.1c0-0.3,0.1-0.6,0.3-1c0.2-0.4,0.3-0.6,0.3-0.7
			c2-3.4,4.7-8.1,8.1-14s6.9-11.9,10.4-17.9c3.5-6,6.2-10.7,8.1-14c0.1-0.3,0.2-0.5,0.2-0.8c0-0.4-0.1-0.7-0.2-0.9
			c-0.1-0.2-0.2-0.4-0.5-0.7c-0.2-0.2-0.5-0.3-0.7-0.3H336.4z"/>
		<path style="&st1;" d="M385.8,33.3c-0.2,0.7-0.4,1.3-0.7,1.8c-0.3,0.5-0.8,0.8-1.4,1.1c-0.7,0.2-1.9,0.3-3.5,0.3h-14.6
			c-1.8,0-2.9,0.3-3.3,0.8c-1.3,1.6-2.6,4.5-3.8,8.6c-1.2,4.1-2.2,8.3-3,12.8c-0.8,4.4-1.1,7.8-1.1,10c0,0.4,0.4,0.9,1.3,1.4
			c0.9,0.5,1.7,0.7,2.4,0.8h7.1c1.3-0.1,2.1-0.1,2.5-0.2c0.4-0.1,0.8-0.3,1.3-0.6c0.5-0.4,0.8-0.7,1-0.9s0.3-0.4,0.4-0.7
			c0.1-0.3,0.3-0.7,0.5-1.2c0.2-0.8,0.5-2,0.8-3.4s0.7-2.9,1-4.4c0.3-1.5,0.6-2.6,0.8-3.4h-7.4c-0.3,0-0.6-0.1-1.1-0.1
			c-0.4-0.1-0.7-0.1-0.8-0.2c-0.7-0.6-1.1-1.1-1.1-1.6c0-0.3,0.1-0.6,0.2-1c0.2-1,0.4-1.9,0.6-2.9c0.2-1,0.4-1.9,0.6-2.9H381
			c0.8,0,1.4,0.1,1.7,0.2c0.3,0.1,0.8,0.4,1.3,0.8c0.1,0.1,0.2,0.4,0.3,1c0.1,0.6,0.1,1,0.1,1.4c-0.4,1.9-1.1,4.6-1.9,8.1
			c-0.8,3.4-1.6,6.9-2.4,10.3s-1.4,6.1-1.9,8.1c-0.2,1.3-0.6,2-1.4,2.2c-0.7,0.7-1.6,1.1-2.8,1.1h-23.5c-2.1,0-3.6-0.1-4.6-0.3
			c-1-0.2-1.7-0.5-2.2-0.8c-0.4-0.3-1.1-1-2.1-2.1c-0.3-0.3-0.5-1.2-0.5-2.8c0-2.5,0.4-6,1.1-10.5c0.7-4.5,1.7-9.3,2.9-14.3
			c1.2-5,2.6-9.3,4-13c1.5-3.7,2.9-6,4.4-7c0.7-0.4,2-0.8,3.7-1.1c1.7-0.3,3.5-0.4,5.2-0.4h24.3C386.3,30.8,385.9,32.6,385.8,33.3z"
			/>
	</g>
</g>
<g>
</g>
<g>
</g>
<g>
</g>
<g>
</g>
<g>
</g>
<g>
</g>
</svg>
